<svg id="a6beaf0b-0be8-48c4-9f16-44a364e6df02" data-name="Layer 1" xmlns="http://www.w3.org/2000/svg" viewBox="0 0 511.06 610.74"><polygon points="154.86 398.82 167.03 259.58 157.28 399.02 191.1 263.39 159.66 399.59 214.27 270.93 161.91 400.52 235.97 281.98 163.98 401.79 255.68 296.3 165.84 403.37 272.9 313.53 167.42 405.23 287.23 333.23 168.69 407.3 298.28 354.94 169.62 409.55 305.81 378.11 170.19 411.92 309.62 402.16 170.38 414.35 309.62 426.53 170.19 416.77 305.81 450.59 169.62 419.15 298.28 473.76 168.69 421.4 287.23 495.47 167.42 423.47 272.9 515.17 165.84 425.32 255.68 532.39 163.98 426.91 235.97 546.72 161.91 428.18 214.27 557.77 159.66 429.11 191.1 565.3 157.28 429.68 167.03 569.11 154.86 429.88 142.67 569.11 152.42 429.68 118.62 565.3 150.06 429.11 95.45 557.77 147.81 428.18 73.74 546.72 145.73 426.91 54.03 532.39 143.88 425.32 36.8 515.17 142.3 423.47 22.49 495.47 141.03 421.4 11.43 473.76 140.09 419.15 3.9 450.59 139.53 416.77 0.09 426.53 139.33 414.35 0.09 402.16 139.53 411.92 3.9 378.11 140.09 409.55 11.43 354.94 141.03 407.3 22.49 333.23 142.3 405.23 36.8 313.53 143.88 403.37 54.03 296.3 145.73 401.79 73.74 281.98 147.81 400.52 95.45 270.93 150.06 399.59 118.62 263.39 152.42 399.02 142.67 259.58 154.86 398.82"/><path d="M143.67,569.2l-2-.16,8.95-128-31,124.53-2-.47L146.51,440,96.37,558.17l-1.85-.77,48.08-119-68,108.85-1.71-1,66.11-110-84.2,96.86-1.52-1.3,82.49-98.31-98.31,82.5-1.3-1.52L133,430.22,23,496.32,22,494.62l108.84-68-119,48.07L11,472.84l118.14-50.15-125,28.88-.47-1.95,124.53-31.05-128,8.95-.16-2,127.86-11.18L0,403.16l.16-2,128,8.95-124.53-31,.47-1.95L129.18,406,11,355.86l.77-1.85,119,48.08L22,334.08l1.05-1.7,110,66.1-96.86-84.2,1.3-1.52,98.31,82.5L53.27,296.94l1.52-1.3L139,392.51l-66.11-110,1.71-1.05,68,108.85-48.08-119,1.85-.77,50.14,118.14-28.87-125,2-.47,31,124.53-8.95-128,2-.16,11.19,127.86L166,259.49l2,.16-8.95,128,31-124.54,1.94.47L163.2,388.67l50.15-118.14,1.84.77-48.08,119,68-108.84,1.7,1.05-66.1,110,84.2-96.87,1.52,1.3L174,395.26l98.31-82.5,1.3,1.52-96.86,84.2,110-66.1,1.05,1.7-108.85,68,119-48.08.76,1.85L180.54,406l125-28.87.46,1.95-124.53,31,128-8.95.16,2L181.86,414.35l127.85,11.18-.16,2-128-8.95,124.53,31.05-.46,1.95-125-28.88,118.13,50.15-.76,1.84-119-48.07,108.85,68-1.05,1.7-110-66.1,96.86,84.2-1.3,1.52L174,433.44l82.5,98.31-1.52,1.3-84.2-96.86,66.1,110-1.7,1-68-108.85,48.08,119-1.84.77L163.2,440l28.87,125.05-1.94.47L159.08,441,168,569l-2,.16L154.86,441.35Zm7.78-139.76,2,.31L151.66,455l2.2-25.18h2L158,454.6l-1.73-24.85,2-.31L164.37,454l-5.69-24.61,1.9-.62,9.72,22.9L161,428.55l1.77-.9L176,448.87l-12.89-21.45,1.62-1.17,16.59,19.09L165.07,426l1.41-1.41,19,15.9-18.67-16.23,1.17-1.61,21.46,12.89-21.23-13.27.9-1.77,23.08,9.32-22.91-9.72.62-1.9,24.6,5.68-24.5-6.1.31-2,24.8,1.73-24.76-2.16v-2l25.17-2.2-25.21,1.76-.31-2,24.15-6-24.25,5.59-.62-1.89,22.92-9.73-23.09,9.33-.9-1.77,21.2-13.25-21.43,12.87-1.17-1.61L185.67,388l-19.19,16.1-1.41-1.4,16.1-19.19-16.43,18.91-1.62-1.17L176,379.83l-13.26,21.22-1.77-.91,9.32-23.06L160.58,400l-1.9-.62,5.69-24.61-6.12,24.51-2-.31L158,374.1l-2.17,24.81h-2l-2.2-25.17L153.42,399l-2,.31-6-24.12L151,399.36l-1.89.62-9.72-22.9,9.32,23.06-1.78.91L133.68,379.8l12.91,21.48L145,402.45l-16.42-18.89,16.08,19.17-1.41,1.4L124,388,143,404.47l-1.18,1.61-21.42-12.87,21.2,13.25-.91,1.77-23.06-9.32,22.9,9.72-.62,1.89-24.27-5.6,24.17,6-.31,2-25.22-1.76,25.18,2.2v2l-24.77,2.16,24.81-1.73.31,2-24.51,6.11,24.61-5.69.62,1.9-22.9,9.72,23.06-9.32.91,1.77-21.23,13.27,21.45-12.89,1.18,1.61-18.7,16.25,19-15.92,1.41,1.41-16.23,19.34L145,426.25l1.61,1.17L133.68,448.9,147,427.65l1.78.9-9.32,23.07,9.72-22.9,1.89.62-5.59,24.22Z"/><circle cx="147.66" cy="414.35" r="71.51"/><path d="M147.66,486.86a72.51,72.51,0,1,1,72.51-72.51A72.59,72.59,0,0,1,147.66,486.86Zm0-143a70.51,70.51,0,1,0,70.51,70.51A70.59,70.59,0,0,0,147.66,343.84Z" fill="#fff"/><polygon points="208.37 609.74 341.24 381.07 509.09 609.74 208.37 609.74" fill="#00ca30"/><path d="M511.06,610.74H206.63L341.14,379.25Zm-301-2h297L341.34,382.9Z"/><polygon points="341.24 381.07 412.28 609.74 208.37 609.74 341.24 381.07"/><path d="M219.17,136.78,189.62,119l6.28,27.71c1.52,5.09,6.88,7.32,12,5.84S218.68,142,219.17,136.78Z"/><polyline points="193.68 235.78 193.68 269.25 205.19 269.25 215.11 246.24"/><polyline points="284.94 241.02 284.94 269.25 296.44 269.25 308.65 240.96"/><path d="M309.14,143.53a70.2,70.2,0,0,0-11.22-8.41c-20.07-12.11-46.64-13.4-69.34-6.83l-22.66-13.64,4.76,21-.09,0c-15.64,9.12-27.28,26-27.34,44.1v-1.57H158.87v22.49s29.48,38.26,57.37,44.58v23.91h11.5l9.94-23H263.5v23H275l9.93-23h0c13.4,0,27.13,1,36.35-11,8.28-10.76,11.34-25.75,11.21-39.09A73,73,0,0,0,309.14,143.53Z" fill="#fff"/><path d="M275.66,270.23H262.5v-23H238.34l-9.94,23H215.24V246.12c-11.55-2.86-24.61-11.17-38.83-24.74a199.4,199.4,0,0,1-18.33-20l-.21-.27V177.25h24.46c1-16.44,11.49-32.67,27.21-42.07l-5.11-22.59,24.29,14.62c24.69-7,50.72-4.4,69.71,7.06a71.09,71.09,0,0,1,11.38,8.52h0a74.36,74.36,0,0,1,23.68,53.36c.09,9.17-1.27,26.52-11.42,39.71-8.85,11.51-21.77,11.44-34.25,11.37h-2.24Zm-11.16-2h9.85l9.93-23h3.56c12.56.07,24.41.14,32.66-10.59,7.14-9.28,11.15-23.3,11-38.47a72.31,72.31,0,0,0-23-51.91A70.24,70.24,0,0,0,297.4,136c-18.64-11.24-44.26-13.76-68.54-6.73l-.42.12-21-12.65,4.42,19.51-.7.35c-16.29,9.48-26.83,26.45-26.88,43.24h-2v-.57H159.87v21.14c2.68,3.4,30.59,38.06,56.59,44l.78.18v23.7h9.84l9.94-23H264.5Z"/><circle cx="202.96" cy="177.74" r="5.4"/><path d="M332.6,190c-.41,0-.82,0-1.24-.05-4.88-.39-9.21-3.41-10.79-7.51l1.86-.72c1.31,3.4,5,5.91,9.09,6.24a17.87,17.87,0,0,0,11.28-3.51,16.45,16.45,0,0,0,4.83-5.11,12.67,12.67,0,0,1-9.55-4.34,8.33,8.33,0,0,1-1.91-6.73,5.78,5.78,0,0,1,5.36-4.73c2.57,0,4.47,1.88,5.84,3.49a14.31,14.31,0,0,1,3.31,5.87,9.41,9.41,0,0,1,0,4.26,14.73,14.73,0,0,0,3-.81,13.87,13.87,0,0,0,8.36-8.55c1.19-4-.29-8.57-3.44-10.66l1.11-1.66c3.91,2.6,5.7,8,4.25,12.89a15.86,15.86,0,0,1-9.54,9.84,16.25,16.25,0,0,1-4.41,1,17.59,17.59,0,0,1-6,6.84A20.37,20.37,0,0,1,332.6,190Zm9-24.46a3.76,3.76,0,0,0-3.44,3.07,6.35,6.35,0,0,0,1.47,5.1,11,11,0,0,0,8.91,3.65,7.42,7.42,0,0,0,.22-4,12.21,12.21,0,0,0-2.86-5C344.75,167.07,343.27,165.59,341.58,165.57Z"/><rect x="154.86" y="267.92" width="187.6" height="27.49" fill="#fff"/><path d="M343.45,296.41H153.86V266.92H343.45Zm-187.59-2H341.45V268.92H155.86Z"/><rect x="154.86" y="582.24" width="187.6" height="27.49" fill="#fff"/><path d="M343.45,610.73H153.86V581.24H343.45Zm-187.59-2H341.45V583.24H155.86Z"/><rect x="181.2" y="295.51" width="134.89" height="286.68" fill="#fff"/><path d="M317.1,583.19H180.2V294.51H317.1Zm-134.9-2H315.1V296.51H182.2Z"/><rect x="205" y="295.47" width="2" height="286.71"/><rect x="233.43" y="295.47" width="2" height="286.71"/><rect x="261.87" y="295.47" width="2" height="286.71"/><rect x="290.31" y="295.47" width="2" height="286.71"/><polygon points="181.12 295.42 181.12 319.27 316.01 367.38 316.01 295.42 181.12 295.42"/><circle cx="257.33" cy="114.98" r="20.61"/><circle cx="260.39" cy="115.48" r="19.07" fill="#00ca30"/><path d="M260.39,135.55a20.08,20.08,0,1,1,20.07-20.07A20.09,20.09,0,0,1,260.39,135.55Zm0-38.15a18.08,18.08,0,1,0,18.07,18.08A18.09,18.09,0,0,0,260.39,97.4Z"/><path d="M263.42,123l.42,3-1.44.2-.4-2.86c-.36.08-.75.13-1.16.19a7.65,7.65,0,0,1-.95.1l.4,2.86-1.45.2-.4-2.94c-6.21.3-7.46-2.38-7.73-4.35l3.44-.48c.17,1,.72,2.13,3.91,2.09l-.6-4.24a16.77,16.77,0,0,1-5.24-.29,3.4,3.4,0,0,1-2.31-3c-.31-2.22,1.28-4.84,6.24-6.13l-.41-2.93,1.44-.21.4,2.86c.31-.07.6-.12.91-.16s.8-.11,1.19-.14l-.39-2.85,1.44-.2.41,3c5.32-.18,6.79,2,7.17,4.56l-3.3.47c-.23-1.44-.85-2.32-3.49-2.32l.59,4.19a21.54,21.54,0,0,1,4.68,0,3.39,3.39,0,0,1,3,3.17C270.13,119,269,121.62,263.42,123Zm-6.34-9-.55-4c-2.54.69-3.19,1.66-3,2.71a1.38,1.38,0,0,0,1.29,1.24A11.14,11.14,0,0,0,257.08,113.93Zm.85-4.24.57,4.13,2-.19h.11l-.59-4.24a8.81,8.81,0,0,0-1.19.13,8.15,8.15,0,0,0-.86.16Zm3.65,10.85-.58-4.18-2.06.2h-.05l.59,4.24a7.91,7.91,0,0,0,.94-.1c.33,0,.84-.09,1.2-.17Zm4.62-3.13c-.09-.66-.47-1.17-1.58-1.25-.57,0-1.32,0-2.16.08l.56,4c2.89-.75,3.37-1.75,3.22-2.86Z"/><circle cx="279.66" cy="65.67" r="20.61"/><circle cx="282.15" cy="67.51" r="19.07" fill="#00ca30"/><path d="M282.15,87.59a20.08,20.08,0,1,1,20.07-20.08A20.1,20.1,0,0,1,282.15,87.59Zm0-38.15a18.08,18.08,0,1,0,18.07,18.07A18.1,18.1,0,0,0,282.15,49.44Z"/><path d="M281.41,75.56l-1,2.8-1.37-.48,1-2.74c-.35-.1-.72-.23-1.12-.37a7.92,7.92,0,0,1-.85-.34l-1,2.72-1.37-.49,1-2.79c-5.65-2.55-5.53-5.54-4.87-7.42l3.28,1.16c-.31,1-.34,2.22,2.54,3.64l1.42-4a17.13,17.13,0,0,1-4.52-2.66,3.39,3.39,0,0,1-.67-3.74c.74-2.12,3.39-3.72,8.35-2.55l1-2.79,1.37.49-1,2.71a6.51,6.51,0,0,1,.85.28c.25.1.77.27,1.12.42l1-2.71,1.38.48L287,60c4.8,2.28,5.13,4.86,4.24,7.34l-3.14-1.1c.46-1.39.29-2.45-2-3.66l-1.4,4a22.8,22.8,0,0,1,4.18,2.12A3.46,3.46,0,0,1,290,72.91C289.21,75.08,287,76.94,281.41,75.56Zm-1.49-10.93,1.34-3.78c-2.55-.54-3.6,0-4,1a1.37,1.37,0,0,0,.57,1.69A11.12,11.12,0,0,0,279.92,64.63Zm2.73-3.39-1.38,3.93,1.87.75.11,0,1.41-4c-.33-.14-.73-.28-1.12-.42a6.18,6.18,0,0,0-.89-.26ZM281,72.56l1.4-4-1.93-.77h-.05L279,71.86a6.32,6.32,0,0,0,.85.35l1.12.38Zm5.54-.66c.23-.64.11-1.27-.85-1.84-.5-.26-1.19-.6-2-.93L282.34,73c2.87.68,3.75,0,4.12-1Z"/><circle cx="244.94" cy="20.76" r="20.61"/><circle cx="247.96" cy="20.07" r="19.07" fill="#00ca30"/><path d="M248,40.14A20.07,20.07,0,1,1,268,20.07,20.09,20.09,0,0,1,248,40.14ZM248,2A18.07,18.07,0,1,0,266,20.07,18.09,18.09,0,0,0,248,2Z"/><path d="M253.57,25.89l1.48,2.54-1.27.72-1.43-2.5c-.31.2-.65.4-1,.61a6.9,6.9,0,0,1-.85.45l1.43,2.5-1.25.72-1.48-2.54c-5.64,2.59-7.81.58-8.79-1.15l3-1.7c.53.85,1.47,1.7,4.4.48l-2.13-3.72a16.72,16.72,0,0,1-5,1.7,3.39,3.39,0,0,1-3.26-1.94c-1.11-1.94-.62-5,3.5-8l-1.47-2.54,1.26-.72,1.43,2.54c.26-.18.53-.33.79-.49s.71-.4,1.06-.57l-1.43-2.54L243.85,9l1.49,2.54c4.87-2.15,7-.71,8.36,1.57l-2.89,1.69c-.75-1.24-1.66-1.82-4.1-.84l2.1,3.66a22.72,22.72,0,0,1,4.34-1.84,3.38,3.38,0,0,1,4,1.81C258.29,19.66,258.27,22.56,253.57,25.89Zm-9.25-6-2-3.48c-2.1,1.58-2.34,2.73-1.82,3.65a1.37,1.37,0,0,0,1.65.67A12.88,12.88,0,0,0,244.32,19.88Zm-.77-4.24,2.07,3.62,1.79-.94.1-.05-2.11-3.69c-.34.16-.7.37-1.06.57a8.4,8.4,0,0,0-.78.45Zm7.43,8.7-2.1-3.67-1.83,1H247l2.14,3.74c.28-.13.55-.28.85-.45s.7-.41,1-.61Zm3.12-4.63c-.33-.58-.84-.91-1.93-.56-.53.2-1.23.51-2,.84l2,3.53c2.39-1.76,2.46-2.87,1.9-3.84Z"/><path d="M235.76,137.76s19.82-11,49.18,0" fill="#fff"/><path d="M284.59,138.7c-28.6-10.74-48.15-.17-48.34-.07l-1-1.74c.82-.46,20.56-11.13,50-.07Z"/></svg>